<?xml version="1.0" encoding="UTF-8" standalone="no"?><svg xmlns="http://www.w3.org/2000/svg" xmlns:xlink="http://www.w3.org/1999/xlink" contentScriptType="application/ecmascript" contentStyleType="text/css" height="136px" preserveAspectRatio="none" style="width:391px;height:136px;" version="1.1" viewBox="0 0 391 136" width="391px" zoomAndPan="magnify"><defs><filter height="300%" id="ftg99eyph7l4m" width="300%" x="-1" y="-1"><feGaussianBlur result="blurOut" stdDeviation="2.0"/><feColorMatrix in="blurOut" result="blurOut2" type="matrix" values="0 0 0 0 0 0 0 0 0 0 0 0 0 0 0 0 0 0 .4 0"/><feOffset dx="4.0" dy="4.0" in="blurOut2" result="blurOut3"/><feBlend in="SourceGraphic" in2="blurOut3" mode="normal"/></filter></defs><g><!--MD5=[23cbaadc18b1780d966e07254adaec4d]
cluster frontend--><rect fill="#FFFFFF" filter="url(#ftg99eyph7l4m)" height="100" style="stroke: #000000; stroke-width: 1.5;" width="148" x="88" y="24"/><text fill="#000000" font-family="sans-serif" font-size="14" font-weight="bold" lengthAdjust="spacingAndGlyphs" textLength="69" x="127.5" y="40.5332">Front End</text><!--MD5=[47c14c564e796a575e671c2b0469a7bb]
cluster backend--><rect fill="#FFFFFF" filter="url(#ftg99eyph7l4m)" height="99" style="stroke: #000000; stroke-width: 1.5;" width="114" x="266" y="24.5"/><text fill="#000000" font-family="sans-serif" font-size="14" font-weight="bold" lengthAdjust="spacingAndGlyphs" textLength="65" x="290.5" y="41.0332">Back End</text><!--MD5=[dd82451e1dd92fe3da01853750f49ff6]
entity server--><polygon fill="#FEFECE" filter="url(#ftg99eyph7l4m)" points="104.5,70,114.5,60,219.5,60,219.5,97.6094,209.5,107.6094,104.5,107.6094,104.5,70" style="stroke: #000000; stroke-width: 1.5;"/><line style="stroke: #000000; stroke-width: 1.5;" x1="209.5" x2="218.5" y1="70" y2="61"/><line style="stroke: #000000; stroke-width: 1.5;" x1="104.5" x2="209.5" y1="70" y2="70"/><line style="stroke: #000000; stroke-width: 1.5;" x1="209.5" x2="209.5" y1="70" y2="107.6094"/><text fill="#000000" font-family="sans-serif" font-size="14" lengthAdjust="spacingAndGlyphs" textLength="75" x="119.5" y="94.5332">Web Server</text><!--MD5=[7468467f3b6b392f1d176d828c753b77]
entity db--><path d="M282.5,70.5 C282.5,60.5 323,60.5 323,60.5 C323,60.5 363.5,60.5 363.5,70.5 L363.5,97.1094 C363.5,107.1094 323,107.1094 323,107.1094 C323,107.1094 282.5,107.1094 282.5,97.1094 L282.5,70.5 " fill="#FEFECE" filter="url(#ftg99eyph7l4m)" style="stroke: #000000; stroke-width: 1.5;"/><path d="M282.5,70.5 C282.5,80.5 323,80.5 323,80.5 C323,80.5 363.5,80.5 363.5,70.5 " fill="none" style="stroke: #000000; stroke-width: 1.5;"/><text fill="#000000" font-family="sans-serif" font-size="14" lengthAdjust="spacingAndGlyphs" textLength="61" x="292.5" y="99.0332">Database</text><!--MD5=[fee662a292a0353a69bd162820bae93b]
entity User--><ellipse cx="21" cy="51.5" fill="#FEFECE" filter="url(#ftg99eyph7l4m)" rx="8" ry="8" style="stroke: #A80036; stroke-width: 2.0;"/><path d="M21,59.5 L21,86.5 M8,67.5 L34,67.5 M21,86.5 L8,101.5 M21,86.5 L34,101.5 " fill="none" filter="url(#ftg99eyph7l4m)" style="stroke: #A80036; stroke-width: 2.0;"/><text fill="#000000" font-family="sans-serif" font-size="14" lengthAdjust="spacingAndGlyphs" textLength="29" x="6.5" y="123.0332">User</text><!--MD5=[525fafba17aeafc1fc846cf448305c8a]
link User to server--><path d="M41.3865,84 C56.6143,84 78.3003,84 99.0945,84 " fill="none" id="User-server" style="stroke: #A80036; stroke-width: 1.0;"/><polygon fill="#A80036" points="104.3575,84,95.3575,80,99.3575,84,95.3575,88,104.3575,84" style="stroke: #A80036; stroke-width: 1.0;"/><polygon fill="#A80036" points="36.0895,84,45.0895,88,41.0895,84,45.0895,80,36.0895,84" style="stroke: #A80036; stroke-width: 1.0;"/><text fill="#000000" font-family="sans-serif" font-size="13" lengthAdjust="spacingAndGlyphs" textLength="32" x="54.25" y="77.4951">HTTP</text><!--MD5=[2927d3a781a947e921db6647bd449b94]
link server to db--><path d="M225.065,84 C242.382,84 260.829,84 276.99,84 " fill="none" id="server-db" style="stroke: #A80036; stroke-width: 1.0;"/><polygon fill="#A80036" points="282.378,84,273.378,80,277.378,84,273.378,88,282.378,84" style="stroke: #A80036; stroke-width: 1.0;"/><polygon fill="#A80036" points="219.67,84,228.67,88,224.67,84,228.67,80,219.67,84" style="stroke: #A80036; stroke-width: 1.0;"/><text fill="#000000" font-family="sans-serif" font-size="13" lengthAdjust="spacingAndGlyphs" textLength="26" x="238" y="77.4951">SQL</text><!--MD5=[7b958a2550b2476a1305e0009d7d6cbf]
@startuml

actor User
rectangle frontend as "Front End" {
    node server as "Web Server"
}
rectangle backend as "Back End" {
    database db as "Database"
}
User <-> server : HTTP
server <-> db : SQL

@enduml

PlantUML version 1.2019.12(Sun Nov 03 05:24:54 EST 2019)
(APACHE source distribution)
Java Runtime: OpenJDK Runtime Environment
JVM: OpenJDK 64-Bit Server VM
Java Version: 13.0.1+9
Operating System: Windows 10
Default Encoding: Cp1252
Language: en
Country: US
--></g></svg>